<svg width="58" height="58" viewBox="0 0 58 58" fill="none" xmlns="http://www.w3.org/2000/svg">
<g id="Group">
<g id="Group_2">
<g id="Group_3">
<g id="Group_4">
<path id="Vector" d="M56.0295 2.45919C55.1733 2.45919 54.1744 2.45919 53.3181 2.45919C47.4674 2.7446 41.902 4.02891 36.6221 6.59753C30.2005 9.59426 24.7779 13.8753 20.4968 19.5833C17.5001 23.4363 15.3596 27.7173 13.7899 32.2838C13.6472 32.5692 13.7899 32.7119 13.9326 32.8546C15.2169 34.1389 16.5012 35.4232 17.7855 36.7075C17.9282 36.8502 18.0709 37.1356 18.0709 37.421C18.0709 37.7064 17.9282 37.9918 17.6428 38.1345C17.3574 38.2772 16.9293 38.2772 16.7866 37.9918C16.0731 37.2783 15.5023 36.7075 14.7888 35.994C13.9326 35.1378 13.2191 34.2816 12.3629 33.5681C12.0775 33.2827 11.9348 32.8546 12.0775 32.4265C13.9326 26.8611 16.6439 21.7239 20.4968 17.1574C24.3498 12.4483 29.0589 8.73805 34.3389 6.02673C39.1907 3.4581 44.4707 1.88839 49.8933 1.17488C52.1765 0.889478 54.4598 0.746777 56.743 0.889479C57.4565 0.889479 57.5992 1.17488 57.7419 1.88839C58.0273 11.164 55.7441 19.7261 50.7495 27.7173C45.755 35.5659 38.9053 41.4167 30.3432 45.1269C29.0589 45.6977 27.6319 46.1258 26.2049 46.6966C25.7768 46.8393 25.4914 46.8393 25.206 46.4112C23.779 44.9842 22.2093 43.4145 20.7822 41.9875C20.4968 41.7021 20.3541 41.274 20.6395 40.8458C20.9249 40.4177 21.4958 40.4177 21.9239 40.8458C23.2082 42.1302 24.4925 43.4145 25.7768 44.6988C26.0622 44.9842 26.2049 44.9842 26.4903 44.8415C32.7692 42.701 38.3345 39.2761 43.0437 34.7097C48.609 29.287 52.3192 22.8655 54.4598 15.5877C55.6014 11.5921 56.1722 7.45374 56.1722 3.1727C56.1722 2.8873 56.0295 2.7446 56.0295 2.45919Z" fill="#FF6B00"/>
</g>
<g id="Group_5">
<path id="Vector_2" d="M48.181 19.1555C48.181 24.0073 44.3281 27.8602 39.4763 27.8602C34.6244 27.8602 30.7715 24.0073 30.7715 19.1555C30.7715 14.4463 34.6244 10.4507 39.3336 10.4507C44.3281 10.4507 48.181 14.3036 48.181 19.1555ZM46.4686 19.2982C46.4686 15.3025 43.3292 12.1631 39.3336 12.1631C35.3379 12.1631 32.1985 15.3025 32.1985 19.2982C32.1985 23.2938 35.3379 26.4332 39.3336 26.4332C43.3292 26.2905 46.4686 23.1511 46.4686 19.2982Z" fill="#FF6B00"/>
</g>
<g id="Group_6">
<path id="Vector_3" d="M26.3483 55.6869C27.3472 55.1161 28.3461 54.4025 29.2023 53.689C32.0563 51.1204 33.6261 47.981 34.3396 44.2708C34.4823 43.7 34.7677 43.4146 35.1958 43.4146C35.7666 43.4146 36.052 43.8427 36.052 44.4135C35.9093 45.127 35.7666 45.9832 35.4812 46.6967C33.9115 51.5485 31.0574 55.1161 26.6337 57.542C25.6348 58.1128 25.2067 57.8274 25.064 56.8285C24.4932 53.8317 23.9224 50.6923 23.3516 47.6956C23.3516 47.4102 23.3516 47.1248 23.3516 46.9821C23.4943 46.6967 23.7797 46.554 24.2078 46.554C24.4932 46.554 24.7786 46.8394 24.9213 47.1248C25.064 47.981 25.2067 48.8372 25.4921 49.8361C25.6348 51.8339 26.0629 53.689 26.3483 55.6869Z" fill="#FF6B00"/>
</g>
<g id="Group_7">
<path id="Vector_4" d="M2.80165 32.1408C3.65786 32.2835 4.51406 32.4262 5.22757 32.5689C7.22539 32.997 9.22321 33.2824 11.0783 33.7105C11.221 33.7105 11.221 33.7105 11.3637 33.7105C11.7918 33.8533 12.0772 34.2814 11.9345 34.7095C11.7918 35.1376 11.5064 35.423 10.9356 35.2803C9.79401 34.9949 8.5097 34.8522 7.36809 34.5668C5.51297 34.1387 3.65786 33.8533 1.66004 33.4251C1.51734 33.4251 1.51734 33.4251 1.37463 33.4251C0.661127 33.2824 0.518426 32.8543 0.803829 32.1408C1.66004 30.5711 2.65895 29.0014 3.94326 27.7171C6.65458 24.8631 9.93671 23.2934 13.6469 22.4371C13.7896 22.4371 13.9324 22.4371 13.9324 22.2944C14.3605 22.1517 14.7886 22.4371 14.9313 22.8652C15.074 23.2934 14.7886 23.7215 14.2178 23.8642C13.3615 24.1496 12.3626 24.2923 11.5064 24.5777C7.79619 25.862 4.94217 28.1452 2.80165 31.4273C2.94435 31.8554 2.94435 31.9981 2.80165 32.1408Z" fill="#FF6B00"/>
</g>
<g id="Group_8">
<path id="Vector_5" d="M12.9336 44.8417C13.0763 44.699 13.219 44.4136 13.3617 44.2709C16.073 41.5596 18.6416 38.9909 21.353 36.2796C22.3519 35.2807 23.2081 34.4245 24.207 33.4256C24.6351 32.9975 25.0632 32.9975 25.4913 33.2829C25.7767 33.5683 25.7767 34.1391 25.3486 34.5672C22.2092 37.7066 19.0697 40.9888 15.7876 44.1282C15.3595 44.5563 14.9314 45.1271 14.3606 45.5552C14.0752 45.8406 13.7898 45.8406 13.5044 45.6979C13.0763 45.5552 12.9336 45.2698 12.9336 44.8417Z" fill="#FF6B00"/>
</g>
<g id="Group_9">
<path id="Vector_6" d="M9.22257 48.5518C9.50797 48.6945 9.79338 48.8372 9.93608 49.1226C10.0788 49.408 9.93608 49.6934 9.79338 49.9788C9.65067 50.1215 9.36527 50.4069 9.22257 50.6923C7.51015 52.4047 5.79774 54.2598 3.94262 55.9722C3.65722 56.1149 3.51452 56.2576 3.22912 56.2576C2.94371 56.2576 2.65831 56.1149 2.51561 55.8295C2.37291 55.4014 2.37291 55.116 2.65831 54.8306C3.79992 53.689 4.94153 52.5474 6.08314 51.4058C6.93935 50.5496 7.65286 49.8361 8.50906 48.9799C8.79447 48.8372 8.93717 48.6945 9.22257 48.5518Z" fill="#FF6B00"/>
</g>
<g id="Group_10">
<path id="Vector_7" d="M7.93822 42.7012C8.65173 42.7012 9.07983 43.4147 8.79443 43.8428C8.65173 43.9855 8.65173 44.1282 8.50903 44.2709C6.65391 46.126 4.79879 47.9811 2.94368 49.8362L2.80097 49.9789C2.37287 50.2643 1.94477 50.407 1.65936 49.9789C1.37396 49.6935 1.37396 49.1227 1.65936 48.8373C3.08638 47.4103 4.51339 45.9833 5.9404 44.5563C6.51121 43.9855 6.93931 43.5574 7.51012 43.1293C7.65282 42.8439 7.93822 42.7012 7.93822 42.7012Z" fill="#FF6B00"/>
</g>
<g id="Group_11">
<path id="Vector_8" d="M15.9299 50.6925C15.9299 50.8352 15.7872 50.9779 15.6445 51.2633C13.6467 53.2611 11.7916 55.1162 9.79377 57.114C9.36566 57.5421 8.93756 57.5421 8.50945 57.114C8.22405 56.8286 8.22405 56.2578 8.65216 55.9724C10.65 53.9746 12.5051 52.1195 14.5029 50.1217C14.7883 49.8363 15.0737 49.6936 15.5018 49.8363C15.7872 49.979 15.9299 50.1217 15.9299 50.6925Z" fill="#FF6B00"/>
</g>
</g>
</g>
</g>
</svg>
