<svg width="46" height="55" viewBox="0 0 46 55" fill="none" xmlns="http://www.w3.org/2000/svg">
<g id="Group">
<g id="Group_2">
<g id="Group_3">
<path id="Vector" d="M18.2568 37.8839C17.7086 38.0209 17.2975 38.158 16.8864 38.432C16.3382 37.6098 15.9271 36.6505 15.3789 35.9652C14.4196 34.5948 13.3232 33.3614 12.3639 31.9909C10.8564 29.9352 9.62297 27.8795 9.07478 25.2756C7.84137 18.8345 11.4045 12.5304 17.5716 10.0636C25.6573 6.77446 34.9764 12.2563 36.2098 20.8902C36.758 24.8645 35.5246 28.1536 33.3319 31.3057C32.3725 32.6761 31.1392 34.0466 30.1798 35.5541C29.4946 36.5134 29.0835 37.4727 28.3983 38.432C28.1242 38.8432 27.8501 39.2543 27.4389 39.3914C24.2869 40.6248 21.1348 41.7211 17.9828 42.8175C17.5716 42.9546 17.2975 42.8175 17.1605 42.5434C17.0234 42.1323 17.0234 41.7211 17.4346 41.5841C17.7087 41.4471 17.9827 41.31 18.2568 41.31C20.9977 40.3507 23.7387 39.3914 26.4796 38.295C26.7537 38.158 27.0278 37.8839 27.1648 37.6098C28.2612 35.5541 29.6317 33.9095 31.0021 31.9909C32.3726 30.2093 33.606 28.5647 34.1542 26.372C35.5246 21.9865 34.5653 18.1493 31.5503 14.8602C28.1241 11.0229 23.7387 9.78947 18.805 11.297C13.8714 12.8045 11.1305 16.2306 10.1711 21.3013C9.4859 24.8645 10.7193 27.8795 12.775 30.6204C14.0084 32.265 15.2418 33.9095 16.4752 35.5541C17.2975 36.1023 17.7086 36.9245 18.2568 37.8839Z" fill="#FF6B00"/>
<path id="Vector_2" d="M17.5713 51.4514C17.4342 51.3144 17.1602 51.1773 17.1602 50.9032C17.1602 50.6291 17.2972 50.355 17.4343 50.081C17.4343 49.9439 17.7083 49.9439 17.8454 49.9439C20.8604 48.8475 24.0125 47.7512 27.0275 46.6548C27.7127 46.3807 27.9868 46.5178 28.1238 46.9289C28.2609 47.34 27.9868 47.7512 27.4386 48.0253C24.2865 49.1216 21.2715 50.218 18.1195 51.4514C17.9824 51.3144 17.8454 51.3144 17.5713 51.4514Z" fill="#FF6B00"/>
<path id="Vector_3" d="M17.5713 46.9294C17.4342 46.7924 17.1602 46.6553 17.1602 46.3813C17.1602 46.1072 17.2972 45.8331 17.4343 45.559C17.4343 45.4219 17.7083 45.4219 17.8454 45.4219C20.8604 44.3256 24.0125 43.2292 27.0275 42.1328C27.7127 41.8587 27.9868 41.9958 28.1238 42.4069C28.2609 42.8181 28.1238 43.2292 27.4386 43.5033C24.2865 44.5997 21.2715 45.8331 18.1195 46.9294C17.9824 46.9294 17.8454 46.9294 17.5713 46.9294Z" fill="#FF6B00"/>
<path id="Vector_4" d="M27.4389 50.7661C26.4796 54.0552 21.1348 55.9739 17.8457 54.1923C20.9978 53.0959 24.1498 51.8625 27.4389 50.7661Z" fill="#FF6B00"/>
<path id="Vector_5" d="M23.3275 2.80032C23.3275 3.3485 23.3275 3.89669 23.3275 4.44487C23.3275 4.85601 23.0534 5.1301 22.6423 5.1301C22.2311 5.1301 21.957 4.85601 21.957 4.44487C21.957 3.3485 21.957 2.25214 21.957 1.01873C21.957 0.607588 22.2311 0.333496 22.6423 0.333496C23.0534 0.333496 23.3275 0.607588 23.3275 1.01873C23.3275 1.56691 23.3275 2.25214 23.3275 2.80032Z" fill="#FF6B00"/>
<path id="Vector_6" d="M2.63282 21.9868C3.18101 21.9868 3.72921 21.9868 4.27739 21.9868C4.82557 21.9868 5.09967 22.2609 5.09967 22.672C5.09967 23.0832 4.82557 23.3573 4.27739 23.3573C3.18102 23.3573 2.08467 23.3573 0.988299 23.3573C0.440116 23.3573 0.166016 23.0832 0.166016 22.672C0.166016 22.2609 0.440116 21.9868 0.988299 21.9868C1.53648 21.9868 2.08464 21.9868 2.63282 21.9868Z" fill="#FF6B00"/>
<path id="Vector_7" d="M42.6501 23.4945C42.1019 23.4945 41.5537 23.4945 41.0055 23.4945C40.5944 23.4945 40.3203 23.2204 40.3203 22.8093C40.3203 22.3981 40.5944 22.124 41.0055 22.124C42.1019 22.124 43.3353 22.124 44.4317 22.124C44.8428 22.124 45.1169 22.3981 45.1169 22.8093C45.1169 23.2204 44.8428 23.4945 44.4317 23.4945C43.7465 23.4945 43.1983 23.4945 42.6501 23.4945Z" fill="#FF6B00"/>
<path id="Vector_8" d="M7.01934 6.36328C7.29343 6.50033 7.43047 6.63737 7.56751 6.77442C8.38979 7.59669 9.07503 8.28192 9.89731 9.1042C10.3084 9.51534 10.3084 9.78943 9.89731 10.2006C9.62322 10.4747 9.21205 10.4747 8.80092 10.2006C7.97864 9.37829 7.15639 8.69306 6.47116 7.87079C6.33412 7.73374 6.19706 7.3226 6.33411 7.04851C6.47115 6.63737 6.88229 6.50033 7.01934 6.36328Z" fill="#FF6B00"/>
<path id="Vector_9" d="M35.6616 35.0063C35.9357 35.1434 36.0727 35.2804 36.2098 35.4175C37.032 36.1027 37.7173 36.925 38.5396 37.6102C38.9507 38.0214 38.9507 38.4325 38.6766 38.7066C38.4025 38.9807 37.9914 38.9807 37.5802 38.5695C36.7579 37.7473 36.0727 37.062 35.2505 36.2398C35.1134 36.1027 34.9764 35.6916 35.1134 35.4175C35.1134 35.2804 35.3875 35.1434 35.6616 35.0063Z" fill="#FF6B00"/>
<path id="Vector_10" d="M38.9491 7.18584C38.812 7.45993 38.675 7.59698 38.538 7.73403C37.7157 8.5563 37.0304 9.24153 36.2082 10.0638C35.9341 10.3379 35.523 10.4749 35.1118 10.0638C34.8377 9.78971 34.8377 9.37858 35.1118 8.96744C35.9341 8.14516 36.6193 7.32289 37.4416 6.63766C37.5786 6.50061 37.9898 6.36357 38.2639 6.50061C38.5379 6.63766 38.675 7.0488 38.9491 7.18584Z" fill="#FF6B00"/>
<path id="Vector_11" d="M7.01729 38.9804C6.88024 38.8433 6.60616 38.7063 6.46911 38.4322C6.33207 38.2951 6.46911 37.884 6.46911 37.7469C7.29139 36.9247 8.11365 35.9653 9.07297 35.1431C9.34707 34.869 9.75818 34.869 10.0323 35.1431C10.3064 35.4172 10.3064 35.8283 10.0323 36.1024C9.21 36.9247 8.38774 37.7469 7.56546 38.5692C7.42842 38.8433 7.29138 38.9804 7.01729 38.9804Z" fill="#FF6B00"/>
</g>
</g>
</g>
</svg>
